<mxfile host="65bd71144e">
    <diagram id="X5SzS_FeevJv-DkIXQUU" name="第 1 页">
        <mxGraphModel dx="930" dy="659" grid="1" gridSize="10" guides="1" tooltips="1" connect="1" arrows="1" fold="1" page="1" pageScale="1" pageWidth="827" pageHeight="1169" math="0" shadow="0">
            <root>
                <mxCell id="0"/>
                <mxCell id="1" parent="0"/>
                <mxCell id="193" value="&lt;font style=&quot;font-size: 20px;&quot;&gt;病人端&lt;/font&gt;" style="shape=umlActor;verticalLabelPosition=bottom;verticalAlign=top;html=1;outlineConnect=0;" parent="1" vertex="1">
                    <mxGeometry x="40" y="40" width="30" height="60" as="geometry"/>
                </mxCell>
                <mxCell id="194" value="开始" style="strokeWidth=2;html=1;shape=mxgraph.flowchart.terminator;whiteSpace=wrap;fontSize=20;" parent="1" vertex="1">
                    <mxGeometry x="160" y="40" width="80" height="40" as="geometry"/>
                </mxCell>
                <mxCell id="195" value="" style="endArrow=classic;html=1;fontSize=20;exitX=0.5;exitY=1;exitDx=0;exitDy=0;exitPerimeter=0;strokeWidth=1;" parent="1" edge="1">
                    <mxGeometry width="50" height="50" relative="1" as="geometry">
                        <mxPoint x="199.5" y="80" as="sourcePoint"/>
                        <mxPoint x="199.5" y="120" as="targetPoint"/>
                    </mxGeometry>
                </mxCell>
                <mxCell id="196" value="导航页面" style="rounded=1;whiteSpace=wrap;html=1;fontSize=20;" parent="1" vertex="1">
                    <mxGeometry x="150" y="120" width="99.75" height="38.75" as="geometry"/>
                </mxCell>
                <mxCell id="197" value="" style="endArrow=classic;html=1;fontSize=20;exitX=0.5;exitY=1;exitDx=0;exitDy=0;exitPerimeter=0;strokeWidth=1;entryX=0.5;entryY=0;entryDx=0;entryDy=0;" parent="1" edge="1">
                    <mxGeometry width="50" height="50" relative="1" as="geometry">
                        <mxPoint x="199.5" y="158.75" as="sourcePoint"/>
                        <mxPoint x="200" y="196.25" as="targetPoint"/>
                    </mxGeometry>
                </mxCell>
                <mxCell id="198" value="前端" style="text;html=1;strokeColor=none;fillColor=none;align=center;verticalAlign=middle;whiteSpace=wrap;rounded=0;fontSize=20;" parent="1" vertex="1">
                    <mxGeometry x="140" y="163.75" width="60" height="30" as="geometry"/>
                </mxCell>
                <mxCell id="199" value="点击" style="text;html=1;strokeColor=none;fillColor=none;align=center;verticalAlign=middle;whiteSpace=wrap;rounded=0;fontSize=20;" parent="1" vertex="1">
                    <mxGeometry x="200" y="163.75" width="60" height="30" as="geometry"/>
                </mxCell>
                <mxCell id="200" value="挂号" style="rounded=1;whiteSpace=wrap;html=1;fontSize=20;" parent="1" vertex="1">
                    <mxGeometry x="160" y="200" width="80" height="38.75" as="geometry"/>
                </mxCell>
                <mxCell id="201" value="" style="endArrow=classic;html=1;fontSize=20;exitX=0.5;exitY=1;exitDx=0;exitDy=0;exitPerimeter=0;strokeWidth=1;" parent="1" edge="1">
                    <mxGeometry width="50" height="50" relative="1" as="geometry">
                        <mxPoint x="199" y="238.75" as="sourcePoint"/>
                        <mxPoint x="199" y="278.75" as="targetPoint"/>
                    </mxGeometry>
                </mxCell>
                <mxCell id="202" value="挂号页面" style="rounded=1;whiteSpace=wrap;html=1;fontSize=20;" parent="1" vertex="1">
                    <mxGeometry x="149.63" y="280.63" width="100.12" height="38.75" as="geometry"/>
                </mxCell>
                <mxCell id="203" value="进入" style="text;html=1;strokeColor=none;fillColor=none;align=center;verticalAlign=middle;whiteSpace=wrap;rounded=0;fontSize=20;" parent="1" vertex="1">
                    <mxGeometry x="140" y="238.75" width="60" height="30" as="geometry"/>
                </mxCell>
                <mxCell id="204" value="" style="endArrow=classic;html=1;fontSize=20;exitX=0.5;exitY=1;exitDx=0;exitDy=0;exitPerimeter=0;strokeWidth=1;" parent="1" edge="1">
                    <mxGeometry width="50" height="50" relative="1" as="geometry">
                        <mxPoint x="200" y="319.38" as="sourcePoint"/>
                        <mxPoint x="200" y="359.38" as="targetPoint"/>
                    </mxGeometry>
                </mxCell>
                <mxCell id="205" value="&lt;font style=&quot;font-size: 20px;&quot;&gt;挂号&lt;/font&gt;" style="shape=process;whiteSpace=wrap;html=1;backgroundOutline=1;" parent="1" vertex="1">
                    <mxGeometry x="160" y="360" width="80.25" height="40" as="geometry"/>
                </mxCell>
                <mxCell id="206" value="" style="endArrow=classic;html=1;fontSize=20;strokeWidth=1;entryX=0.5;entryY=0;entryDx=0;entryDy=0;entryPerimeter=0;exitX=0.5;exitY=1;exitDx=0;exitDy=0;" parent="1" source="205" target="207" edge="1">
                    <mxGeometry width="50" height="50" relative="1" as="geometry">
                        <mxPoint x="300" y="430" as="sourcePoint"/>
                        <mxPoint x="270" y="430" as="targetPoint"/>
                    </mxGeometry>
                </mxCell>
                <mxCell id="207" value="结束" style="strokeWidth=2;html=1;shape=mxgraph.flowchart.terminator;whiteSpace=wrap;fontSize=20;" parent="1" vertex="1">
                    <mxGeometry x="160" y="438.75" width="80" height="40" as="geometry"/>
                </mxCell>
                <mxCell id="208" value="&lt;font style=&quot;font-size: 20px;&quot;&gt;病人端&lt;/font&gt;" style="shape=umlActor;verticalLabelPosition=bottom;verticalAlign=top;html=1;outlineConnect=0;" parent="1" vertex="1">
                    <mxGeometry x="360.5" y="40" width="30" height="60" as="geometry"/>
                </mxCell>
                <mxCell id="209" value="开始" style="strokeWidth=2;html=1;shape=mxgraph.flowchart.terminator;whiteSpace=wrap;fontSize=20;" parent="1" vertex="1">
                    <mxGeometry x="480" y="40" width="80" height="40" as="geometry"/>
                </mxCell>
                <mxCell id="210" value="" style="endArrow=classic;html=1;fontSize=20;exitX=0.5;exitY=1;exitDx=0;exitDy=0;exitPerimeter=0;strokeWidth=1;" parent="1" edge="1">
                    <mxGeometry width="50" height="50" relative="1" as="geometry">
                        <mxPoint x="519.5" y="80" as="sourcePoint"/>
                        <mxPoint x="519.5" y="120" as="targetPoint"/>
                    </mxGeometry>
                </mxCell>
                <mxCell id="211" value="获取科室列表" style="rounded=1;whiteSpace=wrap;html=1;fontSize=20;" parent="1" vertex="1">
                    <mxGeometry x="450.13" y="120" width="139.75" height="38.75" as="geometry"/>
                </mxCell>
                <mxCell id="212" value="" style="shape=flexArrow;endArrow=classic;html=1;exitX=1;exitY=0.5;exitDx=0;exitDy=0;entryX=0;entryY=0.5;entryDx=0;entryDy=0;" parent="1" target="213" edge="1">
                    <mxGeometry width="50" height="50" relative="1" as="geometry">
                        <mxPoint x="590.5" y="139.25" as="sourcePoint"/>
                        <mxPoint x="735.5" y="138.875" as="targetPoint"/>
                    </mxGeometry>
                </mxCell>
                <mxCell id="213" value="&lt;font style=&quot;font-size: 20px;&quot;&gt;获得所有科室信息接口&lt;/font&gt;" style="rounded=0;whiteSpace=wrap;html=1;fillColor=none;" parent="1" vertex="1">
                    <mxGeometry x="700" y="112.19" width="115" height="54.37" as="geometry"/>
                </mxCell>
                <mxCell id="214" value="" style="endArrow=classic;html=1;fontSize=20;exitX=0.5;exitY=1;exitDx=0;exitDy=0;exitPerimeter=0;strokeWidth=1;" parent="1" edge="1">
                    <mxGeometry width="50" height="50" relative="1" as="geometry">
                        <mxPoint x="519.5" y="159" as="sourcePoint"/>
                        <mxPoint x="519.5" y="199" as="targetPoint"/>
                    </mxGeometry>
                </mxCell>
                <mxCell id="215" value="选择科室" style="rounded=1;whiteSpace=wrap;html=1;fontSize=20;" parent="1" vertex="1">
                    <mxGeometry x="470.01" y="200" width="100" height="38.75" as="geometry"/>
                </mxCell>
                <mxCell id="216" value="前端" style="text;html=1;strokeColor=none;fillColor=none;align=center;verticalAlign=middle;whiteSpace=wrap;rounded=0;fontSize=20;" parent="1" vertex="1">
                    <mxGeometry x="460.25" y="170" width="60" height="30" as="geometry"/>
                </mxCell>
                <mxCell id="217" value="" style="endArrow=classic;html=1;fontSize=20;exitX=0.5;exitY=1;exitDx=0;exitDy=0;exitPerimeter=0;strokeWidth=1;" parent="1" edge="1">
                    <mxGeometry width="50" height="50" relative="1" as="geometry">
                        <mxPoint x="519.25" y="240.63" as="sourcePoint"/>
                        <mxPoint x="519.25" y="280.63" as="targetPoint"/>
                    </mxGeometry>
                </mxCell>
                <mxCell id="218" value="获取医生列表" style="rounded=1;whiteSpace=wrap;html=1;fontSize=20;" parent="1" vertex="1">
                    <mxGeometry x="450.75" y="280.63" width="139.75" height="38.75" as="geometry"/>
                </mxCell>
                <mxCell id="219" value="" style="shape=flexArrow;endArrow=classic;html=1;exitX=1;exitY=0.5;exitDx=0;exitDy=0;entryX=0;entryY=0.5;entryDx=0;entryDy=0;" parent="1" edge="1">
                    <mxGeometry width="50" height="50" relative="1" as="geometry">
                        <mxPoint x="590.5" y="299.5" as="sourcePoint"/>
                        <mxPoint x="700" y="299.625" as="targetPoint"/>
                    </mxGeometry>
                </mxCell>
                <mxCell id="220" value="&lt;font style=&quot;font-size: 20px;&quot;&gt;获得该科室下所有医生信息接口&lt;/font&gt;" style="rounded=0;whiteSpace=wrap;html=1;fillColor=none;" parent="1" vertex="1">
                    <mxGeometry x="700" y="261.42" width="110" height="77.18" as="geometry"/>
                </mxCell>
                <mxCell id="221" value="" style="endArrow=classic;html=1;fontSize=20;exitX=0.5;exitY=1;exitDx=0;exitDy=0;exitPerimeter=0;strokeWidth=1;" parent="1" edge="1">
                    <mxGeometry width="50" height="50" relative="1" as="geometry">
                        <mxPoint x="519.25" y="320" as="sourcePoint"/>
                        <mxPoint x="519.25" y="360" as="targetPoint"/>
                    </mxGeometry>
                </mxCell>
                <mxCell id="222" value="选择医生" style="rounded=1;whiteSpace=wrap;html=1;fontSize=20;" parent="1" vertex="1">
                    <mxGeometry x="470" y="360" width="100" height="38.75" as="geometry"/>
                </mxCell>
                <mxCell id="223" value="前端" style="text;html=1;strokeColor=none;fillColor=none;align=center;verticalAlign=middle;whiteSpace=wrap;rounded=0;fontSize=20;" parent="1" vertex="1">
                    <mxGeometry x="460.5" y="330" width="60" height="30" as="geometry"/>
                </mxCell>
                <mxCell id="224" value="" style="endArrow=classic;html=1;fontSize=20;exitX=0.5;exitY=1;exitDx=0;exitDy=0;exitPerimeter=0;strokeWidth=1;" parent="1" edge="1">
                    <mxGeometry width="50" height="50" relative="1" as="geometry">
                        <mxPoint x="519.25" y="400" as="sourcePoint"/>
                        <mxPoint x="519.25" y="440" as="targetPoint"/>
                    </mxGeometry>
                </mxCell>
                <mxCell id="225" value="获取挂号号次" style="rounded=1;whiteSpace=wrap;html=1;fontSize=20;" parent="1" vertex="1">
                    <mxGeometry x="450.13" y="440" width="139.75" height="38.75" as="geometry"/>
                </mxCell>
                <mxCell id="226" value="" style="shape=flexArrow;endArrow=classic;html=1;exitX=1;exitY=0.5;exitDx=0;exitDy=0;entryX=0;entryY=0.5;entryDx=0;entryDy=0;" parent="1" edge="1">
                    <mxGeometry width="50" height="50" relative="1" as="geometry">
                        <mxPoint x="589.88" y="458.88" as="sourcePoint"/>
                        <mxPoint x="699.38" y="459.005" as="targetPoint"/>
                    </mxGeometry>
                </mxCell>
                <mxCell id="227" value="&lt;font style=&quot;font-size: 20px;&quot;&gt;获得挂号&lt;br&gt;号次接口&lt;/font&gt;" style="rounded=0;whiteSpace=wrap;html=1;fillColor=none;" parent="1" vertex="1">
                    <mxGeometry x="700" y="431.57" width="90" height="54.37" as="geometry"/>
                </mxCell>
                <mxCell id="228" value="" style="endArrow=classic;html=1;fontSize=20;exitX=0.5;exitY=1;exitDx=0;exitDy=0;exitPerimeter=0;strokeWidth=1;entryX=0.5;entryY=0;entryDx=0;entryDy=0;" parent="1" target="230" edge="1">
                    <mxGeometry width="50" height="50" relative="1" as="geometry">
                        <mxPoint x="520.13" y="478.75" as="sourcePoint"/>
                        <mxPoint x="520.13" y="518.75" as="targetPoint"/>
                    </mxGeometry>
                </mxCell>
                <mxCell id="229" value="前端" style="text;html=1;strokeColor=none;fillColor=none;align=center;verticalAlign=middle;whiteSpace=wrap;rounded=0;fontSize=20;" parent="1" vertex="1">
                    <mxGeometry x="460.25" y="509" width="60" height="30" as="geometry"/>
                </mxCell>
                <mxCell id="230" value="开始等待" style="rounded=1;whiteSpace=wrap;html=1;fontSize=20;" parent="1" vertex="1">
                    <mxGeometry x="470" y="560" width="100" height="38.75" as="geometry"/>
                </mxCell>
                <mxCell id="231" value="" style="strokeWidth=1;html=1;shape=mxgraph.flowchart.annotation_1;align=left;pointerEvents=1;fontSize=20;" parent="1" vertex="1">
                    <mxGeometry x="660" y="534.37" width="160" height="90.01" as="geometry"/>
                </mxCell>
                <mxCell id="232" value="" style="endArrow=none;html=1;strokeWidth=1;fontSize=20;entryX=1;entryY=0.5;entryDx=0;entryDy=0;exitX=0;exitY=0.5;exitDx=0;exitDy=0;exitPerimeter=0;" parent="1" source="231" edge="1">
                    <mxGeometry width="50" height="50" relative="1" as="geometry">
                        <mxPoint x="600.75" y="579.5" as="sourcePoint"/>
                        <mxPoint x="570" y="578.8799999999999" as="targetPoint"/>
                    </mxGeometry>
                </mxCell>
                <mxCell id="233" value="在等待的途中&lt;br&gt;实时反馈该医生的当前接诊号次" style="text;html=1;strokeColor=none;fillColor=none;align=center;verticalAlign=middle;whiteSpace=wrap;rounded=0;strokeWidth=1;fontSize=20;" parent="1" vertex="1">
                    <mxGeometry x="670" y="542.8199999999999" width="150" height="73.12" as="geometry"/>
                </mxCell>
                <mxCell id="234" value="" style="shape=flexArrow;endArrow=classic;html=1;exitX=1;exitY=0.5;exitDx=0;exitDy=0;" parent="1" edge="1">
                    <mxGeometry width="50" height="50" relative="1" as="geometry">
                        <mxPoint x="469" y="578.88" as="sourcePoint"/>
                        <mxPoint x="359" y="578.88" as="targetPoint"/>
                    </mxGeometry>
                </mxCell>
                <mxCell id="235" value="&lt;font style=&quot;font-size: 20px;&quot;&gt;获得医生接诊号次接口&lt;/font&gt;" style="rounded=0;whiteSpace=wrap;html=1;fillColor=none;" parent="1" vertex="1">
                    <mxGeometry x="250" y="549.38" width="110" height="54.37" as="geometry"/>
                </mxCell>
                <mxCell id="236" value="" style="endArrow=classic;html=1;fontSize=20;exitX=0.5;exitY=1;exitDx=0;exitDy=0;exitPerimeter=0;strokeWidth=1;" parent="1" edge="1">
                    <mxGeometry width="50" height="50" relative="1" as="geometry">
                        <mxPoint x="519.38" y="598.75" as="sourcePoint"/>
                        <mxPoint x="520" y="660" as="targetPoint"/>
                    </mxGeometry>
                </mxCell>
                <mxCell id="237" value="接听" style="text;html=1;strokeColor=none;fillColor=none;align=center;verticalAlign=middle;whiteSpace=wrap;rounded=0;fontSize=20;" parent="1" vertex="1">
                    <mxGeometry x="460.25" y="618.75" width="60" height="30" as="geometry"/>
                </mxCell>
                <mxCell id="238" value="&lt;font style=&quot;font-size: 20px;&quot;&gt;问诊&lt;/font&gt;" style="shape=process;whiteSpace=wrap;html=1;backgroundOutline=1;" parent="1" vertex="1">
                    <mxGeometry x="480.5" y="660" width="80.25" height="40" as="geometry"/>
                </mxCell>
                <mxCell id="239" value="病人挂号流程" style="text;html=1;strokeColor=none;fillColor=none;align=center;verticalAlign=middle;whiteSpace=wrap;rounded=0;fontSize=24;fontStyle=1" parent="1" vertex="1">
                    <mxGeometry x="320" y="720" width="160" height="40" as="geometry"/>
                </mxCell>
                <mxCell id="240" value="&lt;font style=&quot;font-size: 16px;&quot;&gt;此处区分专家和普通医生&lt;/font&gt;" style="text;html=1;strokeColor=none;fillColor=none;align=center;verticalAlign=middle;whiteSpace=wrap;rounded=0;" vertex="1" parent="1">
                    <mxGeometry x="320" y="350" width="110" height="30" as="geometry"/>
                </mxCell>
                <mxCell id="241" value="" style="endArrow=none;dashed=1;html=1;dashPattern=1 3;strokeWidth=2;fontSize=16;entryX=0;entryY=0.5;entryDx=0;entryDy=0;exitX=1;exitY=1;exitDx=0;exitDy=0;" edge="1" parent="1" source="240" target="222">
                    <mxGeometry width="50" height="50" relative="1" as="geometry">
                        <mxPoint x="410" y="430" as="sourcePoint"/>
                        <mxPoint x="460" y="380" as="targetPoint"/>
                    </mxGeometry>
                </mxCell>
            </root>
        </mxGraphModel>
    </diagram>
</mxfile>